<?xml version="1.0" encoding="UTF-8" standalone="no"?>
<!-- Created with Inkscape (http://www.inkscape.org/) -->

<svg
   xmlns:dc="http://purl.org/dc/elements/1.1/"
   xmlns:cc="http://creativecommons.org/ns#"
   xmlns:rdf="http://www.w3.org/1999/02/22-rdf-syntax-ns#"
   xmlns:svg="http://www.w3.org/2000/svg"
   xmlns="http://www.w3.org/2000/svg"
   xmlns:sodipodi="http://sodipodi.sourceforge.net/DTD/sodipodi-0.dtd"
   xmlns:inkscape="http://www.inkscape.org/namespaces/inkscape"
   width="64"
   height="73.900833"
   id="svg7825"
   version="1.1"
   inkscape:version="0.48.4 r9939"
   sodipodi:docname="first_place.svg">
  <defs
     id="defs7827" />
  <sodipodi:namedview
     id="base"
     pagecolor="#ffffff"
     bordercolor="#666666"
     borderopacity="1.0"
     inkscape:pageopacity="0.0"
     inkscape:pageshadow="2"
     inkscape:zoom="3.959798"
     inkscape:cx="-40.06413"
     inkscape:cy="41.674342"
     inkscape:document-units="px"
     inkscape:current-layer="layer1"
     showgrid="false"
     fit-margin-top="0"
     fit-margin-left="0"
     fit-margin-right="0"
     fit-margin-bottom="0"
     inkscape:window-width="1609"
     inkscape:window-height="889"
     inkscape:window-x="97"
     inkscape:window-y="120"
     inkscape:window-maximized="0" />
  <metadata
     id="metadata7830">
    <rdf:RDF>
      <cc:Work
         rdf:about="">
        <dc:format>image/svg+xml</dc:format>
        <dc:type
           rdf:resource="http://purl.org/dc/dcmitype/StillImage" />
        <dc:title></dc:title>
      </cc:Work>
    </rdf:RDF>
  </metadata>
  <g
     inkscape:label="Layer 1"
     inkscape:groupmode="layer"
     id="layer1"
     transform="translate(-349.56935,-487.82613)">
    <path
       sodipodi:type="star"
       style="color:#000000;fill:#ffffff;fill-opacity:0.04705882;fill-rule:nonzero;stroke:none;stroke-width:10;marker:none;visibility:visible;display:inline;overflow:visible;enable-background:accumulate"
       id="path7353"
       sodipodi:sides="6"
       sodipodi:cx="-700.35712"
       sodipodi:cy="-230.31639"
       sodipodi:r1="24.989794"
       sodipodi:r2="21.641796"
       sodipodi:arg1="1.0471976"
       sodipodi:arg2="1.5707963"
       inkscape:flatsided="true"
       inkscape:rounded="1.4224733e-016"
       inkscape:randomized="0"
       d="m -687.86222,-208.67459 -24.98979,-1e-5 -12.4949,-21.64179 12.4949,-21.6418 24.98979,0 12.4949,21.6418 z"
       transform="matrix(0,1.4786203,-1.4786203,0,41.018858,1560.3388)" />
    <g
       id="g8921"
       transform="translate(-0.25251008,-2.7778973)">
      <g
         transform="matrix(1.2583238,0,0,1.2583238,341.68133,486.72184)"
         id="g7210">
        <g
           id="g7212">
          <polygon
             id="polygon7214"
             points="23.1,34.4 32.1,38.6 24.4,54.9 21.6,49.1 15.4,50.6 "
             style="fill:#ff991f" />
        </g>
      </g>
      <g
         transform="matrix(1.2583238,0,0,1.2583238,341.68133,486.72184)"
         id="g7216">
        <g
           id="g7218">
          <polygon
             id="polygon7220"
             points="24.3,31.6 33.4,35.9 27,49.5 24.2,43.7 17.9,45.2 "
             style="fill:#ff761a" />
        </g>
      </g>
      <g
         transform="matrix(1.2583238,0,0,1.2583238,341.68133,486.72184)"
         id="g7222">
        <g
           id="g7224">
          <polygon
             id="polygon7226"
             points="40.7,34.4 31.6,38.6 39.3,54.9 42.2,49.1 48.4,50.6 "
             style="fill:#ff991f" />
        </g>
      </g>
      <g
         transform="matrix(1.2583238,0,0,1.2583238,341.68133,486.72184)"
         id="g7228">
        <g
           id="g7230">
          <polygon
             id="polygon7232"
             points="39.4,31.6 30.4,35.9 36.8,49.5 39.6,43.7 45.8,45.2 "
             style="fill:#ff761a" />
        </g>
      </g>
      <g
         transform="matrix(1.2583238,0,0,1.2583238,341.68133,486.72184)"
         id="g7234">
        <g
           id="g7236">
          <path
             id="path7238"
             d="M 46.4,19.1 C 43.8,13.7 38.3,10 32,10 c -8.8,0 -16,7.2 -16,16 0,4.9 2.2,9.3 5.7,12.3 2.8,2.3 6.4,3.7 10.3,3.7 0.1,0 0.1,0 0.2,0 0.3,0 0.7,0 1,-0.1 4,-0.3 7.6,-2.1 10.2,-4.7 C 46.2,34.3 48,30.4 48,26 48,23.5 47.4,21.2 46.4,19.1 z"
             inkscape:connector-curvature="0"
             style="fill:#ffc533" />
        </g>
      </g>
      <g
         transform="matrix(1.2583238,0,0,1.2583238,341.68133,486.72184)"
         id="g7240">
        <g
           id="g7242">
          <path
             id="path7244"
             d="m 43.9,24.6 c 0,0 0,-0.1 0,-0.1 -0.2,-1.5 -0.7,-2.9 -1.4,-4.2 -0.1,-0.2 -0.2,-0.4 -0.3,-0.6 h 0 c -0.6,-1 -1.4,-1.9 -2.3,-2.7 l 0,0 C 39.8,16.9 39.7,16.8 39.5,16.7 37.4,15 34.8,14 32,14 c -6.6,0 -12,5.4 -12,12 0,3.3 1.3,6.3 3.5,8.5 2.1,2.2 5.1,3.5 8.4,3.5 0,0 0.1,0 0.1,0 3.5,0 6.7,-1.5 8.9,-3.9 1.9,-2.1 3.1,-5 3.1,-8.1 0,-0.5 0,-1 -0.1,-1.4 z"
             inkscape:connector-curvature="0"
             style="fill:#f2ac0f" />
        </g>
      </g>
      <g
         transform="matrix(1.2583238,0,0,1.2583238,341.68133,486.72184)"
         id="g7246">
        <g
           id="g7248">
          <path
             id="path7250"
             d="M 40.9,24.5 C 40.8,23.7 40.5,22.9 40.2,22.2 39.7,21 38.9,20 37.9,19.2 36.3,17.8 34.2,17 32,17 c -5,0 -9,4 -9,9 0,5 4,9 9,9 5,0 9,-4 9,-9 0,-0.5 0,-1 -0.1,-1.5 z"
             inkscape:connector-curvature="0"
             style="fill:#fcea81" />
        </g>
      </g>
      <g
         transform="matrix(1.2583238,0,0,1.2583238,341.68133,486.72184)"
         id="g7258">
        <g
           id="g7260">
          <g
             id="g7262">
            <path
               id="path7264"
               d="m 43.9,24.4 c -0.7,-0.2 -1.2,-0.8 -1.2,-1.6 h -0.1 c 0,0.9 -0.7,1.7 -1.7,1.7 v 0 c 0.9,0 1.7,0.7 1.7,1.7 h 0.1 c 0,-0.8 0.5,-1.4 1.2,-1.6 0.1,0 0.3,-0.1 0.4,-0.1 v 0 c -0.1,0 -0.3,0 -0.4,-0.1 z"
               inkscape:connector-curvature="0"
               style="fill:#ffffff" />
          </g>
        </g>
        <g
           id="g7266">
          <g
             id="g7268">
            <path
               id="path7270"
               d="m 43.8,20 c -0.6,0 -1.1,-0.1 -1.6,-0.3 -1.1,-0.5 -2,-1.5 -2.3,-2.7 -0.1,-0.3 -0.1,-0.7 -0.1,-1.1 h -0.1 c 0,0.3 0,0.5 -0.1,0.8 -0.2,0.8 -0.6,1.6 -1.1,2.2 -0.2,0.1 -0.3,0.3 -0.5,0.4 -0.7,0.5 -1.5,0.8 -2.5,0.8 2.3,0 4.1,1.8 4.1,4.1 h 0.1 c 0,-0.7 0.2,-1.3 0.5,-1.9 0.2,-0.4 0.4,-0.7 0.7,-1 0.4,-0.4 1,-0.8 1.6,-1 0.4,-0.2 0.9,-0.3 1.3,-0.3 z"
               inkscape:connector-curvature="0"
               style="fill:#ffffff" />
          </g>
        </g>
      </g>
      <text
         sodipodi:linespacing="125%"
         id="text7642-8"
         y="526.91266"
         x="377.85587"
         style="font-size:25.1664753px;font-style:normal;font-variant:normal;font-weight:normal;font-stretch:normal;text-align:start;line-height:125%;letter-spacing:0px;word-spacing:0px;writing-mode:lr-tb;text-anchor:start;fill:#ca8f0b;fill-opacity:1;stroke:none;font-family:COCOGOOSE;-inkscape-font-specification:COCOGOOSE"
         xml:space="preserve"><tspan
           style="font-size:20.13318062px;fill:#ca8f0b;fill-opacity:1"
           y="526.91266"
           x="377.85587"
           id="tspan7644-4"
           sodipodi:role="line">1</tspan></text>
    </g>
  </g>
</svg>
