<?xml version="1.0" encoding="UTF-8" standalone="no"?>
<!-- Created with Inkscape (http://www.inkscape.org/) -->

<svg
   xmlns:dc="http://purl.org/dc/elements/1.1/"
   xmlns:cc="http://creativecommons.org/ns#"
   xmlns:rdf="http://www.w3.org/1999/02/22-rdf-syntax-ns#"
   xmlns:svg="http://www.w3.org/2000/svg"
   xmlns="http://www.w3.org/2000/svg"
   xmlns:sodipodi="http://sodipodi.sourceforge.net/DTD/sodipodi-0.dtd"
   xmlns:inkscape="http://www.inkscape.org/namespaces/inkscape"
   width="296.46854"
   height="296.46985"
   id="svg7186"
   version="1.1"
   inkscape:version="0.48.4 r9939"
   sodipodi:docname="New document 7">
  <defs
     id="defs7188" />
  <sodipodi:namedview
     id="base"
     pagecolor="#ffffff"
     bordercolor="#666666"
     borderopacity="1.0"
     inkscape:pageopacity="0.0"
     inkscape:pageshadow="2"
     inkscape:zoom="0.35"
     inkscape:cx="148.23427"
     inkscape:cy="148.23493"
     inkscape:document-units="px"
     inkscape:current-layer="layer1"
     showgrid="false"
     fit-margin-top="0"
     fit-margin-left="0"
     fit-margin-right="0"
     fit-margin-bottom="0"
     inkscape:window-width="765"
     inkscape:window-height="591"
     inkscape:window-x="208"
     inkscape:window-y="208"
     inkscape:window-maximized="0" />
  <metadata
     id="metadata7191">
    <rdf:RDF>
      <cc:Work
         rdf:about="">
        <dc:format>image/svg+xml</dc:format>
        <dc:type
           rdf:resource="http://purl.org/dc/dcmitype/StillImage" />
        <dc:title></dc:title>
      </cc:Work>
    </rdf:RDF>
  </metadata>
  <g
     inkscape:label="Layer 1"
     inkscape:groupmode="layer"
     id="layer1"
     transform="translate(-226.76573,-384.12726)">
    <path
       d="m 374.54717,384.12821 c -41.6313,0.1486 -82.9616,17.73431 -112.1562,51.84375 -53.236,62.198 -45.9793,155.763 16.2188,209 21.7708,18.634 47.3962,29.85825 73.7812,33.90625 48.991,7.517 100.6187,-9.698 135.2188,-50.125 53.2359,-62.197 45.9772,-155.76501 -16.2188,-209 -21.771,-18.635 -47.3964,-29.85925 -73.7812,-33.90625 -7.6551,-1.17438 -15.3529,-1.74627 -23.0626,-1.71875 z m -24.8124,18.59375 8.6874,44.84375 c 5.3737,-1.04983 10.9181,-1.59375 16.5938,-1.59375 5.6758,0 11.2209,0.54392 16.5938,1.59375 l 8.7187,-44.75 c 22.33,4.33 43.2,14.30375 60.625,29.21875 4.94,4.228 9.543,8.7595 13.75,13.5625 l -34.5937,30.06249 c 7.2556,8.32228 12.9645,18.03106 16.625,28.68751 l 43.3437,-14.90625 c 3.577,10.453 5.872,21.438 6.75,32.75 1.422,18.309 -0.9279,36.30325 -6.7187,53.15625 l -43.375,-14.9375 c -3.6698,10.66414 -9.419,20.3616 -16.6876,28.6875 l 34.6563,30.125 c -14.789,16.982 -33.696,29.94325 -54.75,37.53125 -6.409,2.309 -12.9842,4.11325 -19.6563,5.40625 l -8.7187,-45 c -5.3634,1.04674 -10.8974,1.59375 -16.5625,1.59375 -5.6865,0 -11.2419,-0.53928 -16.625,-1.59375 l -8.7812,45 c -22.3252,-4.348 -43.1748,-14.43275 -60.5938,-29.34375 -4.965,-4.248 -9.5593,-8.793 -13.7812,-13.625 l 34.6562,-30.125 c -7.2666,-8.33169 -12.9607,-18.05048 -16.625,-28.71875 l -43.4062,14.9375 c -3.5621,-10.441 -5.8115,-21.3995 -6.6876,-32.6875 -1.4219,-18.325 0.9148,-36.376 6.7188,-53.25 l 43.4062,14.96875 c 3.6683,-10.6589 9.3585,-20.36566 16.625,-28.68751 l -34.625,-30.12499 c 14.7842,-16.964 33.6738,-29.82125 54.7188,-37.40625 6.428,-2.315 13.0296,-4.096 19.7188,-5.375 z m 79.875,26.75 c -4.4184,0 -8,3.58172 -8,8 0,4.41827 3.5816,8 8,8 4.4181,0 8,-3.58173 8,-8 0,-4.41828 -3.5819,-8 -8,-8 z m -109.4688,0.15625 c -4.4183,0 -8,3.58172 -8,8 0,4.41827 3.5817,8 8,8 4.4183,0 8,-3.58173 8,-8 0,-4.41828 -3.5817,-8 -8,-8 z m 54.875,34.71875 c -37.4948,0 -68.0312,30.50337 -68.0312,68 0,37.49663 30.5364,68 68.0312,68 37.4949,0 68,-30.50337 68,-68 0,-37.49663 -30.5051,-68 -68,-68 z m -0.9375,11.56249 c 3.9278,0 7.125,3.16593 7.125,7.09375 l 0,46.68751 38.8125,0 c 3.9278,0 7.125,3.19717 7.125,7.125 0,3.92783 -3.1972,7.09375 -7.125,7.09375 l -45.9375,0 c -3.9279,0 -7.0937,-3.16592 -7.0937,-7.09375 l 0,-53.81251 c 0,-3.92782 3.1658,-7.09375 7.0937,-7.09375 z m 110.4063,48.31251 c -4.4184,0 -8,3.58172 -8,8 0,4.41828 3.5816,8 8,8 4.4181,0 8,-3.58172 8,-8 0,-4.41828 -3.5819,-8 -8,-8 z m -218.9688,0.28125 c -4.4183,0 -8,3.58172 -8,8 0,4.41828 3.5817,8 8,8 4.4183,0 8,-3.58172 8,-8 0,-4.41828 -3.5817,-8 -8,-8 z m 164.3438,94.59375 c -4.419,0 -8,3.58117 -8,8 0,4.41883 3.581,8 8,8 4.4187,0 8,-3.58117 8,-8 0,-4.41883 -3.5813,-8 -8,-8 z m -109.4688,0.15625 c -4.4183,0 -8,3.58172 -8,8 0,4.41828 3.5817,8 8,8 4.4183,0 8,-3.58172 8,-8 0,-4.41828 -3.5817,-8 -8,-8 z"
       id="path6617"
       inkscape:connector-curvature="0" />
  </g>
</svg>
